<?xml version="1.0" encoding="utf-8"?>
<!-- Generator: Adobe Illustrator 25.0.1, SVG Export Plug-In . SVG Version: 6.00 Build 0)  -->
<svg version="1.1" id="_layer_1" xmlns:serif="http://www.serif.com/"
	 xmlns="http://www.w3.org/2000/svg" xmlns:xlink="http://www.w3.org/1999/xlink" x="0px" y="0px" viewBox="0 0 727.2 825.4"
	 style="enable-background:new 0 0 727.2 825.4;" xml:space="preserve">
<style type="text/css">
	.st0{fill:url(#SVGID_1_);}
	.st1{font-family:'TimesNewRomanPS-BoldItalicMT';}
	.st2{font-size:120px;}
	.st3{fill:#D5D6D7;}
	.st4{fill:none;stroke:#23272B;stroke-width:3;stroke-linecap:round;stroke-linejoin:round;stroke-miterlimit:10;}
	.st5{fill:#303438;stroke:#D5D6D7;stroke-width:3;stroke-linecap:round;stroke-linejoin:round;stroke-miterlimit:10;}
	.st6{fill:none;stroke:#D5D6D7;stroke-width:3;stroke-linecap:round;stroke-linejoin:round;stroke-miterlimit:10;}
	.st7{fill:none;stroke:#212529;stroke-width:5;stroke-linecap:round;stroke-linejoin:round;stroke-miterlimit:10;}
</style>
<linearGradient id="SVGID_1_" gradientUnits="userSpaceOnUse" x1="194.4536" y1="110.8825" x2="532.7366" y2="696.8058">
	<stop  offset="0" style="stop-color:#FFFFFF"/>
	<stop  offset="0.2007" style="stop-color:#C0C2C3"/>
	<stop  offset="0.4048" style="stop-color:#888A8C"/>
	<stop  offset="0.5941" style="stop-color:#5C5F61"/>
	<stop  offset="0.7624" style="stop-color:#3C3F43"/>
	<stop  offset="0.9034" style="stop-color:#282C30"/>
	<stop  offset="1" style="stop-color:#212529"/>
</linearGradient>
<path class="st0" d="M683.6,198L381.9,23.8c-11.3-6.5-25.3-6.5-36.6,0L43.6,198c-11.3,6.5-18.3,18.6-18.3,31.7v348.4
	c0,13.1,7,25.2,18.3,31.7l301.7,174.1c11.3,6.5,25.3,6.5,36.6,0l301.7-174.2c11.3-6.5,18.3-18.6,18.3-31.7V229.6
	C701.9,216.6,695,204.5,683.6,198z"/>
<text transform="matrix(1 0 0 1 63.5999 604.774)"><tspan x="0" y="0" class="st1 st2">this</tspan><tspan x="180.1" y="0" class="st3 st1 st2">template</tspan></text>
<g>
	<path class="st4" d="M451.2,497.4H103.5c-8.7,0-15.7-7-15.7-15.7V251c0-8.7,7-15.7,15.7-15.7h347.7c8.7,0,15.7,7,15.7,15.7v230.7
		C466.9,490.3,459.9,497.4,451.2,497.4z"/>
	<path class="st5" d="M624.4,497.4h-98.2c-8.3,0-15-6.7-15-15V250.3c0-8.3,6.7-15,15-15h98.2c8.3,0,15,6.7,15,15v232.1
		C639.4,490.6,632.7,497.4,624.4,497.4z"/>
	<path class="st6" d="M446.9,275.6l-33.2-19.2c-1.2-0.7-2.8-0.7-4,0l-33.2,19.2c-1.2,0.7-2,2-2,3.5v38.4c0,1.4,0.8,2.8,2,3.5
		l33.2,19.2c1.2,0.7,2.8,0.7,4,0l33.2-19.2c1.2-0.7,2-2,2-3.5v-38.4C448.9,277.7,448.2,276.3,446.9,275.6z"/>
	<line class="st7" x1="120.7" y1="302.1" x2="270.6" y2="302.1"/>
	<line class="st7" x1="120.7" y1="366.3" x2="240.3" y2="366.3"/>
	<line class="st7" x1="120.7" y1="430.5" x2="333.3" y2="430.5"/>
</g>
</svg>
